<?xml version="1.0" encoding="utf-8"?>
<!-- Generator: Adobe Illustrator 21.0.0, SVG Export Plug-In . SVG Version: 6.00 Build 0)  -->
<svg version="1.1" id="Layer_1" xmlns="http://www.w3.org/2000/svg" xmlns:xlink="http://www.w3.org/1999/xlink" x="0px" y="0px"
	 viewBox="0 0 100.6 49" style="enable-background:new 0 0 100.6 49;" xml:space="preserve">
<style type="text/css">
	.st0{fill:#FFFFFF;}
	.st1{clip-path:url(#SVGID_2_);fill:url(#SVGID_3_);}
	.st2{clip-path:url(#SVGID_5_);fill:url(#SVGID_6_);}
</style>
<rect x="1.2" y="35.7" class="st0" width="2.4" height="13.1"/>
<path class="st0" d="M7.4,48.7H5v-7.6c0-1.7,0.5-3.1,1.6-4.1c1.1-1.1,2.4-1.6,4-1.6s2.9,0.5,4,1.6c1.1,1.1,1.6,2.4,1.6,4.1v7.6h-2.4
	v-7.6c0-1-0.3-1.8-0.9-2.4c-0.6-0.7-1.4-1-2.2-1c-0.9,0-1.6,0.3-2.2,1c-0.6,0.7-0.9,1.5-0.9,2.4V48.7z"/>
<path class="st0" d="M17.6,48.7v-2.3h6.7c1,0,1.5-0.4,1.5-1.3c0-0.4-0.3-0.8-0.8-1.1c-0.6-0.3-1.2-0.5-2.1-0.8
	c-0.8-0.2-1.6-0.5-2.4-0.7c-0.8-0.3-1.5-0.7-2.1-1.3c-0.6-0.6-0.8-1.3-0.8-2.1c0-1.1,0.4-2,1.2-2.6c0.8-0.6,1.9-0.9,3.3-0.9h5.6V38
	h-6c-0.6,0-1,0.1-1.2,0.3c-0.2,0.2-0.3,0.5-0.4,0.9c0,0.4,0.3,0.7,0.8,1c0.6,0.3,1.3,0.5,2.1,0.7c0.8,0.2,1.6,0.5,2.4,0.7
	c0.8,0.3,1.5,0.7,2.1,1.3c0.6,0.6,0.8,1.3,0.8,2.2c0,1.2-0.4,2.1-1.1,2.7c-0.7,0.6-1.7,0.9-2.9,0.9H17.6z"/>
<path class="st0" d="M38.3,35.7h2.4v7.6c0,1.7-0.5,3.1-1.6,4.1c-1.1,1.1-2.4,1.6-4,1.6c-1.6,0-2.9-0.5-4-1.6
	c-1.1-1.1-1.6-2.4-1.6-4.1v-7.6H32v7.6c0,1,0.3,1.8,0.9,2.4c0.6,0.7,1.4,1,2.2,1c0.9,0,1.6-0.3,2.2-1c0.6-0.7,0.9-1.5,0.9-2.4V35.7z
	"/>
<path class="st0" d="M42.7,48.7V35.7H45v1.5H45c0.7-1.2,1.9-1.8,3.5-1.8h0.5v2.3h-0.4c-2.4,0-3.7,1.6-3.7,5v6.1H42.7z"/>
<path class="st0" d="M62.8,48.7h-2.4v-7.3c0-1.2-0.4-2.1-1.3-2.7c-0.8-0.7-1.8-1-3-1c-1.3,0-2.3,0.4-3.1,1.3c-0.8,0.9-1.2,2-1.2,3.2
	c0,1.2,0.4,2.3,1.2,3.2c0.8,0.9,1.8,1.3,3.1,1.3c1.3,0,2.3-0.6,3.3-1.8v2.8c-1.1,0.8-2.3,1.3-3.5,1.3c-1.8,0-3.4-0.7-4.6-2
	c-1.2-1.3-1.8-3-1.8-4.9c0-1.9,0.6-3.5,1.8-4.8c1.2-1.3,2.9-1.9,4.9-1.9c2,0,3.6,0.6,4.8,1.7c1.2,1.1,1.8,2.6,1.8,4.5V48.7z"/>
<path class="st0" d="M66.9,48.7h-2.4v-7.6c0-1.7,0.5-3.1,1.6-4.1c1.1-1.1,2.4-1.6,4-1.6c1.6,0,2.9,0.5,4,1.6
	c1.1,1.1,1.6,2.4,1.6,4.1v7.6h-2.4v-7.6c0-1-0.3-1.8-0.9-2.4s-1.4-1-2.2-1c-0.9,0-1.6,0.3-2.2,1c-0.6,0.7-0.9,1.5-0.9,2.4V48.7z"/>
<path class="st0" d="M86.3,35.7V38h-1.9c-1.2,0-2.3,0.4-3.2,1.1c-0.9,0.8-1.3,1.8-1.3,3.1c0,1.3,0.4,2.4,1.3,3.1
	c0.9,0.8,1.9,1.1,3.2,1.1h1.9v2.3H84c-1.1,0-2.1-0.2-3-0.7c-1-0.5-1.8-1.2-2.5-2.3c-0.7-1-1-2.2-1-3.5c0-1.3,0.3-2.5,1-3.5
	c0.7-1,1.5-1.8,2.5-2.3c1-0.5,2-0.7,3-0.7H86.3z"/>
<path class="st0" d="M99.9,39.5l-8.8,4.9l-1-1.9l6.4-3.6c-0.5-0.5-0.9-0.8-1.3-1c-0.4-0.2-1-0.3-1.7-0.3c-1.3,0-2.3,0.4-3.1,1.3
	c-0.8,0.8-1.2,1.9-1.2,3.3c0,1.3,0.4,2.4,1.2,3.3c0.8,0.8,1.8,1.3,3.1,1.3c1.3,0,2.3-0.3,3-1c0.7-0.7,1.1-1.7,1.4-3l2.4,0.3
	c-0.1,1.7-0.8,3.2-2.1,4.3c-1.3,1.2-2.8,1.7-4.7,1.7c-1.8,0-3.4-0.6-4.8-1.9c-1.3-1.3-2-2.9-2-4.9c0-2,0.7-3.6,2-4.9
	c1.3-1.3,2.9-1.9,4.8-1.9C96.5,35.4,98.6,36.8,99.9,39.5"/>
<g>
	<defs>
		<path id="SVGID_1_" d="M1.4,30.9c-0.3,0.3-0.4,0.6-0.4,1c0,0.4,0.1,0.7,0.4,1c0.3,0.3,0.6,0.4,1,0.4c0.4,0,0.8-0.1,1-0.4
			c0.3-0.3,0.4-0.6,0.4-1c0-0.4-0.1-0.7-0.4-1c-0.3-0.3-0.6-0.4-1-0.4C2,30.4,1.7,30.6,1.4,30.9"/>
	</defs>
	<clipPath id="SVGID_2_">
		<use xlink:href="#SVGID_1_"  style="overflow:visible;"/>
	</clipPath>
	
		<linearGradient id="SVGID_3_" gradientUnits="userSpaceOnUse" x1="2.4661" y1="62.3724" x2="3.4661" y2="62.3724" gradientTransform="matrix(0 2.6885 -2.6885 0 170.1327 23.965)">
		<stop  offset="0" style="stop-color:#58B3E5"/>
		<stop  offset="0.5215" style="stop-color:#334798"/>
		<stop  offset="1" style="stop-color:#2B3285"/>
	</linearGradient>
	<rect x="1" y="30.4" class="st1" width="2.9" height="2.9"/>
</g>
<g>
	<defs>
		<path id="SVGID_4_" d="M6.5,30.4c-0.8,0-1.4,0.6-1.4,1.4c0,0.8,0.6,1.4,1.4,1.4h92.6c0.8,0,1.4-0.6,1.4-1.3c0,0,0-0.1,0-0.1
			s0-0.1,0-0.1c-0.1-0.7-0.7-1.3-1.4-1.3H6.5z"/>
	</defs>
	<clipPath id="SVGID_5_">
		<use xlink:href="#SVGID_4_"  style="overflow:visible;"/>
	</clipPath>
	
		<linearGradient id="SVGID_6_" gradientUnits="userSpaceOnUse" x1="2.4663" y1="62.3725" x2="3.4663" y2="62.3725" gradientTransform="matrix(0 2.6876 -2.6876 0 220.4402 23.9668)">
		<stop  offset="0" style="stop-color:#58B3E5"/>
		<stop  offset="0.5215" style="stop-color:#334798"/>
		<stop  offset="1" style="stop-color:#2B3285"/>
	</linearGradient>
	<rect x="5" y="30.4" class="st2" width="95.5" height="2.9"/>
</g>
<path class="st0" d="M1,24.1h11.2l0.3,0c0.8-0.1,1.3-0.2,1.7-0.3c0.6-0.3,1-0.9,1-1.6c0-1.2-1.2-2.2-3.5-2.9
	c-1.9-0.5-3.3-0.9-4.3-1.2c-2.2-0.8-3.8-1.5-4.7-2.4c-1.1-1-1.7-2.3-1.7-4c0-2.2,0.8-3.8,2.5-4.8c1.3-0.8,3-1.2,5.1-1.2h9.6v3.9H7.8
	c-1.7,0-2.6,0.7-2.6,2c0.1,0.9,0.9,1.6,2.4,2.2C8.2,14,9.6,14.4,12,15c2.6,0.8,4.5,1.7,5.7,2.9c1.1,1.1,1.6,2.5,1.6,4.2
	c0,2.3-0.9,3.9-2.6,4.9c-1.1,0.6-2.7,0.9-4.6,0.9h-1.4H1V24.1z"/>
<path class="st0" d="M20.4,27.9V12.6c0-2,0.8-3.8,2.3-5.3c1.5-1.5,3.5-2.2,6-2.2c1.5,0,2.8,0.4,3.9,1.1c0.8,0.5,1.5,1.2,2.2,2
	c0.6-0.9,1.5-1.6,2.5-2.2c1.2-0.6,2.7-1,4.2-1c2.1,0,3.9,0.7,5.5,2.2c1.6,1.5,2.3,3.2,2.3,5.3v15.3h-4.1l0-14.1
	c0-1.2-0.3-2.3-0.8-3.1c-0.7-1.1-1.8-1.7-3.2-1.7c-1.5,0-2.7,0.5-3.5,1.6c-0.6,0.8-0.9,1.9-0.9,3.2v14.1h-4.2l0-13.8
	c0-1.5-0.4-2.7-1.1-3.7c-0.7-0.9-1.7-1.4-3-1.4c-1.6,0-2.8,0.6-3.4,1.7c-0.5,0.9-0.7,2.1-0.7,3.6v13.5H20.4z"/>
<path class="st0" d="M69.5,27.9V15.1c0-1.7-0.7-3.2-2-4.3c-1.3-1.1-3.1-1.7-5.3-1.7c-1.8,0-3.3,0.5-4.6,1.5c-1.8,1.3-2.6,3.3-2.6,6
	c0,2.4,0.8,4.4,2.3,5.8c1.4,1.4,3.1,2,5,2c2.1,0,4-1,5.7-3.1v4.9c-1.2,0.8-2,1.3-2.4,1.4c-1,0.4-2.2,0.6-3.6,0.6
	c-2.9,0-5.4-1-7.5-3.1c-2.3-2.3-3.5-5.1-3.5-8.7c0-3.3,1-5.9,2.9-8c2.1-2.3,5-3.4,8.8-3.4c3.5,0,6.3,1,8.3,3.1
	c1.9,1.9,2.8,4.3,2.8,7.1v12.5L69.5,27.9z"/>
<path class="st0" d="M75.7,5.6h3.9v2.6c0.6-0.9,1.3-1.6,2.2-2.1c1-0.6,2.3-0.9,3.6-0.9h1.3v3.9h-1c-2.1,0-3.7,0.9-4.7,2.7
	c-0.8,1.3-1.2,2.8-1.2,4.5v11.7h-4.1V5.6z"/>
<path class="st0" d="M88.4,21V0h4v5.7h8v3.9h-8v12.2c0,0.6,0.2,1.1,0.7,1.6c0.5,0.5,1.2,0.7,2.2,0.7h5.1v3.9h-5.2
	c-2.4,0-4.2-0.7-5.3-2.1C89,24.6,88.4,23,88.4,21"/>
</svg>
